PathFileType  4	(X/Y/Z) C:\Users\antoi\Documents\MyRepositories\mobilecap\ResultsAnalysis
DataRate	CameraRate	NumFrames	NumMarkers	Units	OrigDataRate	OrigDataStartFrame	OrigNumFrames
100.0	100.0	4	51	mm	100.0	1	1399
Frame#	Time	r_knee			r_shank_antsup			r_ankle			r_calc			r_5meta			r_toe			L_knee			L_shank_antsup			L_ankle			L_calc			L_5meta			L_toe			r_sh2			r_sh3			r_sh4			L_sh2			L_sh3			r_thigh1			r_thigh2			r_thigh3			r_thigh4			r_thigh5			L_thigh1			L_thigh2			L_thigh3			L_thigh4			r.ASIS			r.PSIS			L.ASIS			L.PSIS			C7			R_Shoulder			L_Shoulder			R_Sternum			L_Sternum			R_humerus			R_elbow_med			R_elbow_lat			R_forearm			R_wrist_radius			R_wrist_ulna			L_humerus			L_elbow_med			L_elbow_lat			L_forearm			L_wrist_radius			L_wrist_ulna			R_HJC			L_HJC			R_HJC_reg			L_HJC_reg			
		X1	Y1	Z1	X2	Y2	Z2	X3	Y3	Z3	X4	Y4	Z4	X5	Y5	Z5	X6	Y6	Z6	X7	Y7	Z7	X8	Y8	Z8	X9	Y9	Z9	X10	Y10	Z10	X11	Y11	Z11	X12	Y12	Z12	X13	Y13	Z13	X14	Y14	Z14	X15	Y15	Z15	X16	Y16	Z16	X17	Y17	Z17	X18	Y18	Z18	X19	Y19	Z19	X20	Y20	Z20	X21	Y21	Z21	X22	Y22	Z22	X23	Y23	Z23	X24	Y24	Z24	X25	Y25	Z25	X26	Y26	Z26	X27	Y27	Z27	X28	Y28	Z28	X29	Y29	Z29	X30	Y30	Z30	X31	Y31	Z31	X32	Y32	Z32	X33	Y33	Z33	X34	Y34	Z34	X35	Y35	Z35	X36	Y36	Z36	X37	Y37	Z37	X38	Y38	Z38	X39	Y39	Z39	X40	Y40	Z40	X41	Y41	Z41	X42	Y42	Z42	X43	Y43	Z43	X44	Y44	Z44	X45	Y45	Z45	X46	Y46	Z46	X47	Y47	Z47	X48	Y48	Z48	X49	Y49	Z49	X50	Y50	Z50	X51	Y51	Z51	

1	0.00000000	-262.56181	488.08332	-410.35228	-197.93553	407.28116	-413.59668	-294.88332	92.24933	-417.18508	-355.67834	57.32810	-461.68413	-170.34093	47.23479	-384.12582	-141.90197	76.93490	-439.76383	-264.02621	489.19830	-820.69568	-194.80058	416.20210	-809.21131	-287.96304	96.22856	-808.09529	-357.50588	52.14127	-759.14373	-179.21666	40.33820	-841.24524	-135.03346	69.69736	-787.03162	-212.37590	294.17531	-413.03851	-264.03668	413.01718	-376.86497	-283.14576	300.65323	-371.65459	-275.11127	436.88427	-847.50314	-290.45986	316.30360	-855.65918	-532.83057	548.76563	-432.37427	-424.40841	553.14265	-433.10096	-398.24356	507.42088	-388.00088	-529.61250	442.13341	-391.66787	-413.58665	451.11644	-399.52696	-504.18805	556.91968	-799.12360	-365.73361	571.83966	-790.73259	-497.06448	460.80005	-849.12750	-363.99530	470.59528	-830.39404	-560.02338	589.33956	-496.70552	-769.68128	574.55969	-576.24066	-571.20991	581.38940	-755.05337	-770.92908	573.61096	-666.03004	-745.39210	1038.08275	-614.04623	-670.00710	1007.82067	-448.33533	-663.94471	1010.12615	-770.97375	-614.93597	969.14677	-591.79486	-618.27907	972.59910	-635.67946	-644.07887	876.32416	-391.33164	-731.85338	680.66753	-440.66165	-731.95550	686.07275	-364.22055	-638.93121	708.93485	-357.35434	-491.42671	764.01673	-407.18842	-490.02345	716.10333	-397.11947	-649.52253	869.80766	-835.86103	-724.75734	689.33404	-781.65013	-718.69337	690.18304	-868.22984	-646.29304	711.44047	-876.86256	-489.14656	755.51719	-841.80145	-490.97157	706.27758	-853.24159	-623.69214	485.53093	-520.35485	-628.83634	481.38239	-709.80213	-617.40184	494.09747	-531.50633	-619.77439	492.29357	-702.23031	
2	0.01000000	-262.12606	489.26264	-410.02744	-197.94999	407.33516	-413.59893	-294.85909	92.30013	-417.13824	-355.68172	57.31749	-461.71313	-170.34786	47.23388	-384.13500	-141.94623	76.93219	-439.74499	-264.03024	489.22092	-820.68931	-194.76251	416.23021	-809.03929	-287.95316	96.24704	-808.10180	-357.50306	52.15544	-759.12845	-179.21264	40.35693	-841.23029	-135.02754	69.70685	-787.03604	-212.41792	294.15701	-413.04289	-264.06295	413.03363	-376.82923	-283.12593	300.64384	-371.66101	-275.11609	436.89617	-847.50411	-290.45123	316.35596	-855.65177	-532.83493	548.76483	-432.36021	-424.81116	553.64061	-433.01603	-398.20651	507.47745	-387.97940	-529.61191	442.16699	-391.65988	-413.55815	451.16666	-399.52614	-504.20559	556.91923	-799.10998	-366.00471	572.07780	-790.83876	-497.08006	460.80194	-849.12311	-363.99193	470.60157	-830.38986	-560.02541	589.34707	-496.69879	-769.66614	574.54905	-576.24617	-571.21588	581.40659	-755.04658	-770.90610	573.60228	-665.94863	-745.43675	1038.05725	-614.07809	-670.01369	1007.83002	-448.36355	-663.94432	1010.11764	-771.07485	-614.98088	969.27286	-591.87740	-618.33687	973.12319	-636.23964	-644.03742	876.37647	-391.25065	-731.87998	680.63823	-440.67030	-731.96483	686.05315	-364.23241	-638.97502	708.95469	-357.36211	-491.45974	764.00737	-407.24971	-490.06589	716.04621	-397.19669	-649.59499	869.74121	-835.84474	-724.89834	689.67455	-781.65026	-718.74371	690.15761	-868.23638	-646.35267	711.41681	-876.86619	-489.21389	755.47436	-841.93128	-491.06740	706.20922	-853.18942	-623.66481	485.53383	-520.33958	-628.82515	481.39114	-709.78655	-617.39907	494.10408	-531.50468	-619.75892	492.30217	-702.22873	
3	0.02000000	-262.14193	489.21758	-410.00793	-197.95202	407.32738	-413.62248	-294.85124	92.29188	-417.13328	-355.66372	57.25310	-461.81968	-170.34553	47.23240	-384.13368	-141.93559	76.94784	-439.73691	-264.03174	489.23193	-820.68782	-194.75703	416.23371	-809.03136	-287.95331	96.25623	-808.09459	-357.54566	52.13422	-759.05454	-179.20909	40.37925	-841.22537	-135.02192	69.71913	-787.02943	-212.43114	294.16795	-413.04418	-264.10809	413.01436	-376.81140	-283.21212	300.63020	-371.63594	-275.10896	436.88637	-847.43745	-290.44440	316.40054	-855.64846	-532.83872	548.75968	-432.35562	-424.92892	553.75070	-432.97630	-398.19217	507.52844	-387.92578	-529.64188	442.13501	-391.62603	-413.55475	451.15735	-399.51691	-504.21155	556.92453	-799.09596	-366.12127	572.18310	-790.87664	-497.08933	460.80844	-849.12127	-363.99177	470.61473	-830.38722	-560.04343	589.34123	-496.69762	-769.66324	574.55276	-576.24643	-571.21508	581.42567	-755.02994	-770.89566	573.59834	-665.91345	-745.49038	1038.06908	-614.11274	-670.03793	1007.83731	-448.37883	-663.98621	1010.10526	-771.09154	-614.87791	969.05244	-591.83194	-618.39442	973.22465	-636.37891	-643.89807	876.49414	-391.08050	-731.89299	680.67329	-440.71497	-731.96627	686.06010	-364.27778	-639.01121	708.95821	-357.38636	-491.48666	763.99792	-407.27866	-490.09252	716.02052	-397.27449	-649.66390	869.68865	-835.86583	-724.98639	689.88450	-781.67338	-718.78972	690.11050	-868.27906	-646.40702	711.39610	-876.87356	-489.25442	755.44740	-842.02746	-491.13143	706.16728	-853.19307	-623.66313	485.53131	-520.33281	-628.82193	481.40199	-709.78011	-617.41884	494.12836	-531.49736	-619.76512	492.31129	-702.21018	
4	0.03000000	-262.48971	488.35106	-410.19611	-197.95012	407.29314	-413.63919	-294.84090	92.21732	-417.16797	-355.63141	57.21117	-461.91763	-170.33804	47.23393	-384.12082	-141.90669	76.96607	-439.73412	-264.02877	489.23687	-820.68852	-194.76028	416.19267	-809.02924	-287.95233	96.27022	-808.08723	-357.57209	52.11446	-759.00903	-179.20352	40.40249	-841.22863	-135.01222	69.73347	-787.01783	-212.41875	294.19368	-413.03239	-264.13441	412.97624	-376.82100	-283.32266	300.62124	-371.59922	-275.10206	436.87803	-847.38066	-290.44857	316.40828	-855.65393	-532.84072	548.75729	-432.35573	-424.73345	553.51731	-432.96340	-398.19521	507.53201	-387.91367	-529.63908	442.12483	-391.65275	-413.56145	451.12724	-399.49637	-504.20194	556.93796	-799.08503	-365.95345	572.04773	-790.80299	-497.08682	460.82663	-849.12636	-363.99027	470.63084	-830.38780	-560.06319	589.33362	-496.71231	-769.67187	574.56308	-576.24178	-571.21462	581.44356	-755.01274	-770.88542	573.59637	-665.89046	-745.54727	1038.09730	-614.16116	-670.07939	1007.82806	-448.41437	-664.05405	1010.10007	-771.11538	-614.90120	968.94427	-591.84635	-618.44053	972.95362	-636.16271	-643.79989	876.57822	-390.96798	-731.94502	680.84802	-440.78558	-731.97387	686.07995	-364.34051	-639.03959	708.97806	-357.42546	-491.50435	763.98843	-407.29341	-490.10006	715.98784	-397.42284	-649.71827	869.62943	-835.86995	-725.00979	689.84159	-781.69902	-718.82424	690.02335	-868.31852	-646.47655	711.35351	-876.87143	-489.29179	755.42577	-842.08544	-491.16736	706.15777	-853.25432	-623.66745	485.52966	-520.33107	-628.82515	481.41246	-709.77867	-617.45915	494.16401	-531.50522	-619.76971	492.32338	-702.19617	
